<?xml version="1.0" encoding="UTF-8" standalone="no"?>
<svg
   xmlns:dc="http://purl.org/dc/elements/1.1/"
   xmlns:cc="http://creativecommons.org/ns#"
   xmlns:rdf="http://www.w3.org/1999/02/22-rdf-syntax-ns#"
   xmlns:svg="http://www.w3.org/2000/svg"
   xmlns="http://www.w3.org/2000/svg"
   id="svg4556"
   version="1.1"
   viewBox="76.5 72.205 103.539 38.045"
   height="38.045px"
   width="103.539px"
   fill="#FFFFFF">
  <metadata
     id="metadata4562">
    <rdf:RDF>
      <cc:Work
         rdf:about="">
        <dc:format>image/svg+xml</dc:format>
        <dc:type
           rdf:resource="http://purl.org/dc/dcmitype/StillImage" />
        <dc:title></dc:title>
      </cc:Work>
    </rdf:RDF>
  </metadata>
  <defs
     id="defs4560" />
  <g
     style="display:none;opacity:0.444"
     id="layer1">
    <path
       style="fill:#e5ffd5"
       id="path4542"
       d="M 104.37,101.5 V 86.903 h -2.38 v -2.345 h 2.38 v -0.806 c 0,-2.38 0.525,-4.55 1.961,-5.915 1.154,-1.12 2.695,-1.575 4.13,-1.575 1.085,0 2.03,0.245 2.626,0.489 l -0.421,2.381 c -0.455,-0.21 -1.085,-0.385 -1.96,-0.385 -2.625,0 -3.291,2.31 -3.291,4.9 v 0.91 h 4.096 v 2.345 h -4.096 V 101.5 Z" />
    <path
       style="fill:#e5ffd5"
       id="path4544"
       d="m 114.274,89.844 c 0,-1.995 -0.034,-3.71 -0.14,-5.285 h 2.695 l 0.104,3.325 h 0.141 c 0.77,-2.275 2.625,-3.711 4.69,-3.711 0.351,0 0.595,0.035 0.875,0.105 v 2.905 c -0.315,-0.07 -0.63,-0.105 -1.05,-0.105 -2.17,0 -3.711,1.646 -4.131,3.956 -0.07,0.42 -0.14,0.91 -0.14,1.435 v 9.031 h -3.046 V 89.844 Z" />
    <path
       style="fill:#e5ffd5"
       id="path4546"
       d="m 129.29,79.798 c 0.035,1.05 -0.734,1.89 -1.96,1.89 -1.085,0 -1.854,-0.84 -1.854,-1.89 0,-1.085 0.805,-1.926 1.924,-1.926 1.156,0 1.89,0.841 1.89,1.926 z M 125.86,101.5 V 84.559 h 3.08 V 101.5 Z" />
    <path
       style="fill:#e5ffd5"
       id="path4548"
       d="m 133.63,98.35 c 0.91,0.595 2.52,1.226 4.061,1.226 2.24,0 3.289,-1.12 3.289,-2.521 0,-1.471 -0.875,-2.275 -3.15,-3.115 -3.045,-1.085 -4.48,-2.766 -4.48,-4.796 0,-2.73 2.206,-4.971 5.846,-4.971 1.716,0 3.221,0.49 4.166,1.051 l -0.77,2.24 c -0.666,-0.42 -1.891,-0.98 -3.466,-0.98 -1.82,0 -2.835,1.05 -2.835,2.311 0,1.399 1.015,2.03 3.22,2.87 2.94,1.12 4.446,2.59 4.446,5.11 0,2.976 -2.311,5.075 -6.336,5.075 -1.855,0 -3.57,-0.455 -4.761,-1.154 z" />
    <path
       style="fill:#e5ffd5"
       id="path4550"
       d="m 159.985,100.87 c -0.805,0.42 -2.59,0.979 -4.865,0.979 -5.111,0 -8.436,-3.465 -8.436,-8.646 0,-5.216 3.57,-8.996 9.101,-8.996 1.82,0 3.431,0.455 4.271,0.875 l -0.7,2.381 c -0.735,-0.42 -1.89,-0.806 -3.57,-0.806 -3.886,0 -5.985,2.87 -5.985,6.406 0,3.92 2.52,6.335 5.881,6.335 1.75,0 2.904,-0.455 3.779,-0.84 z" />
    <path
       style="fill:#e5ffd5"
       id="path4552"
       d="m 178.711,92.889 c 0,6.266 -4.341,8.996 -8.436,8.996 -4.585,0 -8.121,-3.36 -8.121,-8.716 0,-5.671 3.71,-8.996 8.401,-8.996 4.866,0 8.156,3.536 8.156,8.716 z m -13.441,0.175 c 0,3.71 2.136,6.511 5.146,6.511 2.94,0 5.146,-2.766 5.146,-6.581 0,-2.87 -1.435,-6.511 -5.075,-6.511 -3.64,0 -5.217,3.361 -5.217,6.581 z" />
    <path
       style="fill:#e5ffd5"
       id="path4554"
       d="m 82.5,96.834 h 2 v -12 h -2 z m 4,4 h 2 v -20 h -2 z m -8,-8 h 2 v -4 h -2 z m 12,4 h 2 v -12 h -2 z m 4,-8 v 4 h 2 v -4 z" />
  </g>
  <g
     style="display:none"
     id="layer2">
    <text
       id="text4590"
       y="101.5"
       x="107.415"
       style="font-style:normal;font-weight:normal;font-size:40px;line-height:125%;font-family:sans-serif;letter-spacing:0px;word-spacing:0px;display:inline;fill:#ffffff;fill-opacity:1;stroke:none;stroke-width:1px;stroke-linecap:butt;stroke-linejoin:miter;stroke-opacity:1"
       xml:space="preserve"><tspan
         style="font-style:normal;font-variant:normal;font-weight:500;font-stretch:normal;font-size:32px;font-family:Roboto;-inkscape-font-specification:'Roboto, Medium';font-variant-ligatures:normal;font-variant-caps:normal;font-variant-numeric:normal;font-feature-settings:normal;text-align:start;writing-mode:lr-tb;text-anchor:start;fill:#ffffff"
         y="101.5"
         x="107.415"
         id="tspan4588">Iffrit</tspan></text>
    <rect
       y="80.246094"
       x="83.708725"
       height="20"
       width="3"
       id="rect4594"
       style="opacity:1;fill:#ffffff;fill-opacity:1;stroke:none;stroke-width:0.09999999;stroke-miterlimit:4;stroke-dasharray:none;stroke-opacity:1" />
    <rect
       style="opacity:1;fill:#ffffff;fill-opacity:1;stroke:none;stroke-width:0.09999999;stroke-miterlimit:4;stroke-dasharray:none;stroke-opacity:1"
       id="rect4596"
       width="3"
       height="20"
       x="87.917442"
       y="80.246094" />
    <g
       transform="translate(-0.09272766)"
       id="g4662">
      <rect
         y="88.220459"
         x="79.5"
         height="8"
         width="3"
         id="rect4602"
         style="opacity:1;fill:#ffffff;fill-opacity:1;stroke:none;stroke-width:0.06324556;stroke-miterlimit:4;stroke-dasharray:none;stroke-opacity:1" />
      <rect
         style="opacity:1;fill:#ffffff;fill-opacity:1;stroke:none;stroke-width:0.03872984;stroke-miterlimit:4;stroke-dasharray:none;stroke-opacity:1"
         id="rect4604"
         width="3"
         height="3"
         x="79.5"
         y="84.272163" />
    </g>
    <rect
       y="82.720459"
       x="96.407272"
       height="14"
       width="3"
       id="rect4610"
       style="opacity:1;fill:#ffffff;fill-opacity:1;stroke:none;stroke-width:0.08366601;stroke-miterlimit:4;stroke-dasharray:none;stroke-opacity:1" />
    <rect
       y="88.220459"
       x="79.407272"
       height="3"
       width="20"
       id="rect4628"
       style="opacity:1;fill:#ffffff;fill-opacity:1;stroke:none;stroke-width:0.10000002;stroke-miterlimit:4;stroke-dasharray:none;stroke-opacity:1" />
    <rect
       y="88.220459"
       x="92.115822"
       height="8"
       width="3"
       id="rect4658"
       style="opacity:1;fill:#ffffff;fill-opacity:1;stroke:none;stroke-width:0.06324556;stroke-miterlimit:4;stroke-dasharray:none;stroke-opacity:1" />
  </g>
  <g
     id="g4684"
     style="display:inline">
    <text
       xml:space="preserve"
       style="font-style:normal;font-weight:normal;font-size:40px;line-height:125%;font-family:sans-serif;letter-spacing:0px;word-spacing:0px;display:inline;fill:#000000;fill-opacity:1;stroke:none;stroke-width:1px;stroke-linecap:butt;stroke-linejoin:miter;stroke-opacity:1;"
       x="111.415"
       y="101.5"
       id="text4666"><tspan
         id="tspan4664"
         x="111.415"
         y="101.5"
         style="font-style:normal;font-variant:normal;font-weight:500;font-stretch:normal;font-size:32px;font-family:Roboto;-inkscape-font-specification:'Roboto, Medium';font-variant-ligatures:normal;font-variant-caps:normal;font-variant-numeric:normal;font-feature-settings:normal;text-align:start;writing-mode:lr-tb;text-anchor:start;fill:#000000;">Iffrit</tspan></text>
    <g
       style="fill:#000000"
       transform="translate(4)"
       id="g4703">
      <rect
         y="80.246094"
         x="85.073936"
         height="20"
         width="3"
         id="rect4668"
         style="opacity:1;fill:#000000;fill-opacity:1;stroke:none;stroke-width:0.09999999;stroke-miterlimit:4;stroke-dasharray:none;stroke-opacity:1" />
      <rect
         style="opacity:1;fill:#000000;fill-opacity:1;stroke:none;stroke-width:0.09999999;stroke-miterlimit:4;stroke-dasharray:none;stroke-opacity:1"
         id="rect4670"
         width="3"
         height="20"
         x="90.740608"
         y="80.246094" />
      <rect
         style="opacity:1;fill:#000000;fill-opacity:1;stroke:none;stroke-width:0.06324556;stroke-miterlimit:4;stroke-dasharray:none;stroke-opacity:1"
         id="rect4672"
         width="3"
         height="8"
         x="79.407272"
         y="88.220459" />
      <rect
         y="82.272163"
         x="79.407272"
         height="3"
         width="3"
         id="rect4674"
         style="opacity:1;fill:#000000;fill-opacity:1;stroke:none;stroke-width:0.03872984;stroke-miterlimit:4;stroke-dasharray:none;stroke-opacity:1" />
      <rect
         y="88.220459"
         x="79.407272"
         height="3"
         width="20"
         id="rect4680"
         style="opacity:1;fill:#000000;fill-opacity:1;stroke:none;stroke-width:0.10000002;stroke-miterlimit:4;stroke-dasharray:none;stroke-opacity:1" />
      <rect
         y="88.220459"
         x="96.407272"
         height="8"
         width="3"
         id="rect4686"
         style="opacity:1;fill:#000000;fill-opacity:1;stroke:none;stroke-width:0.06324556;stroke-miterlimit:4;stroke-dasharray:none;stroke-opacity:1" />
      <rect
         style="opacity:1;fill:#000000;fill-opacity:1;stroke:none;stroke-width:0.03872984;stroke-miterlimit:4;stroke-dasharray:none;stroke-opacity:1"
         id="rect4688"
         width="3"
         height="3"
         x="96.407272"
         y="82.272163" />
    </g>
  </g>
  <g
     id="g4656"
     style="display:none">
    <text
       xml:space="preserve"
       style="font-style:normal;font-weight:normal;font-size:40px;line-height:125%;font-family:sans-serif;letter-spacing:0px;word-spacing:0px;display:inline;fill:#ffffff;fill-opacity:1;stroke:none;stroke-width:1px;stroke-linecap:butt;stroke-linejoin:miter;stroke-opacity:1"
       x="107.415"
       y="101.5"
       id="text4636"><tspan
         id="tspan4634"
         x="107.415"
         y="101.5"
         style="font-style:normal;font-variant:normal;font-weight:500;font-stretch:normal;font-size:32px;font-family:Roboto;-inkscape-font-specification:'Roboto, Medium';font-variant-ligatures:normal;font-variant-caps:normal;font-variant-numeric:normal;font-feature-settings:normal;text-align:start;writing-mode:lr-tb;text-anchor:start;fill:#ffffff">Iffrit</tspan></text>
    <rect
       style="opacity:1;fill:#ffffff;fill-opacity:1;stroke:none;stroke-width:0.10954451;stroke-miterlimit:4;stroke-dasharray:none;stroke-opacity:1"
       id="rect4638"
       width="3"
       height="24"
       x="83.708725"
       y="78.246094" />
    <rect
       y="78.246094"
       x="87.917442"
       height="24"
       width="3"
       id="rect4640"
       style="opacity:1;fill:#ffffff;fill-opacity:1;stroke:none;stroke-width:0.10954451;stroke-miterlimit:4;stroke-dasharray:none;stroke-opacity:1" />
    <rect
       y="88.220459"
       x="79.5"
       height="10"
       width="3"
       id="rect4642"
       style="opacity:1;fill:#ffffff;fill-opacity:1;stroke:none;stroke-width:0.07071068;stroke-miterlimit:4;stroke-dasharray:none;stroke-opacity:1" />
    <rect
       style="opacity:1;fill:#ffffff;fill-opacity:1;stroke:none;stroke-width:0.03872984;stroke-miterlimit:4;stroke-dasharray:none;stroke-opacity:1"
       id="rect4644"
       width="3"
       height="3"
       x="79.5"
       y="84.272163" />
    <rect
       style="opacity:1;fill:#ffffff;fill-opacity:1;stroke:none;stroke-width:0.08944273;stroke-miterlimit:4;stroke-dasharray:none;stroke-opacity:1"
       id="rect4646"
       width="3"
       height="16"
       x="100.54361"
       y="82.220467" />
    <rect
       style="opacity:1;fill:#ffffff;fill-opacity:1;stroke:none;stroke-width:0.07071068;stroke-miterlimit:4;stroke-dasharray:none;stroke-opacity:1"
       id="rect4648"
       width="3"
       height="10"
       x="92.126167"
       y="88.246315" />
    <rect
       y="88.220467"
       x="96.334892"
       height="10"
       width="3"
       id="rect4650"
       style="opacity:1;fill:#ffffff;fill-opacity:1;stroke:none;stroke-width:0.07071068;stroke-miterlimit:4;stroke-dasharray:none;stroke-opacity:1" />
    <rect
       style="opacity:1;fill:#ffffff;fill-opacity:1;stroke:none;stroke-width:0.03872984;stroke-miterlimit:4;stroke-dasharray:none;stroke-opacity:1"
       id="rect4652"
       width="3"
       height="3"
       x="96.334892"
       y="84.272171" />
    <rect
       style="opacity:1;fill:#ffffff;fill-opacity:1;stroke:none;stroke-width:0.10954453;stroke-miterlimit:4;stroke-dasharray:none;stroke-opacity:1"
       id="rect4654"
       width="24"
       height="3"
       x="79.5"
       y="88.220459" />
  </g>
</svg>
